# xmcd
#
# Track frame offsets: 
#        150
#        17612
#        35532
#        50220
#        64342
#        77637
#        92460
#        105902
#        119570
#        137770
#
# Disc length: 2089 seconds
#
# Revision: 6
# Processed by: cddbd v1.5.2PL0 Copyright (c) Steve Scherf et al.
# Submitted via: ExactAudioCopy v0.95b4
#
DISCID=8008270a
DTITLE=Marvin Gaye - Great Songs and Performances [1968-77]
DYEAR=1983
DGENRE=Rock
TTITLE0=What's Going On
TTITLE1=I Want You (vocal)
TTITLE2=Mercy Mercy Me (The Ecology)
TTITLE3=Inner City Blues (Make Me Wanna Holler)
TTITLE4=My Mistake (Was To Love You)
TTITLE5=I Heard It Through The Grapevine
TTITLE6=Too Busy Thinking About My Baby
TTITLE7=Ain't That Peculiar
TTITLE8=Let's Get It On
TTITLE9=Got To Give It Up
EXTD=
EXTT0=
EXTT1=
EXTT2=
EXTT3=
EXTT4=
EXTT5=
EXTT6=
EXTT7=
EXTT8=
EXTT9=
PLAYORDER=
